<?xml version="1.0" encoding="UTF-8"?>
<svg width="114px" height="29px" viewBox="0 0 114 29" version="1.1" xmlns="http://www.w3.org/2000/svg" xmlns:xlink="http://www.w3.org/1999/xlink">
    <title>Artboard Copy 3</title>
    <desc>Created with Sketch.</desc>
    <g id="Artboard-Copy-3" stroke="none" stroke-width="1" fill="none" fill-rule="evenodd">
        <rect id="Rectangle" stroke="#44484B" stroke-width="0.25" x="2.125" y="1.125" width="109.75" height="26.75"></rect>
        <g id="Group" transform="translate(9.000000, 7.000000)" fill-rule="nonzero">
            <path d="M0.0351888021,13.8047467 L1.28209635,13.5975971 L1.28209635,4.80853456 L0.0351888021,4.60138494 L0.0351888021,3.66181345 L2.57490234,3.66181345 L2.71259766,4.63837595 C2.98798966,4.27339622 3.32329989,3.99473344 3.71853841,3.80237926 C4.11377693,3.61002508 4.57148177,3.51384943 5.09166667,3.51384943 C6.1167369,3.51384943 6.9135768,3.90718317 7.48221029,4.69386245 C8.05084377,5.48054173 8.33515625,6.51997855 8.33515625,7.81220407 L8.33515625,7.96756629 C8.33515625,9.12169138 8.04956883,10.0526223 7.47838542,10.7603871 C6.90720201,11.4681518 6.11928671,11.8220289 5.11461589,11.8220289 C4.6046307,11.8220289 4.15712541,11.7394165 3.77208659,11.5741892 C3.38704777,11.4089618 3.0593872,11.1635906 2.78909505,10.8380682 L2.78909505,13.5975971 L4.0360026,13.8047467 L4.0360026,14.7443182 L0.0351888021,14.7443182 L0.0351888021,13.8047467 Z M6.82050781,7.81220407 C6.82050781,6.89975475 6.6369159,6.15254395 6.26972656,5.57054924 C5.90253723,4.98855454 5.35686126,4.69756155 4.63268229,4.69756155 C4.20429473,4.69756155 3.8371109,4.79127116 3.53111979,4.97869318 C3.22512868,5.1661152 2.97778957,5.4225836 2.78909505,5.74810606 L2.78909505,9.64695786 C2.97778957,9.97741248 3.22385373,10.2326479 3.52729492,10.4126716 C3.83073611,10.5926954 4.20429466,10.682706 4.64798177,10.682706 C5.36196104,10.682706 5.90253723,10.4311697 6.26972656,9.92808949 C6.6369159,9.42500932 6.82050781,8.77150812 6.82050781,7.96756629 L6.82050781,7.81220407 Z M15.1051758,11.6666667 C15.0592771,11.4496517 15.0235787,11.2548344 14.9980794,11.0822088 C14.9725802,10.9095833 14.954731,10.7369603 14.9445313,10.5643348 C14.6538397,10.9243823 14.2904807,11.2240065 13.8544434,11.4632161 C13.418406,11.7024258 12.9530515,11.8220289 12.4583659,11.8220289 C11.5964909,11.8220289 10.9411698,11.6185804 10.4923828,11.2116773 C10.0435958,10.8047742 9.81920573,10.2314194 9.81920573,9.49159564 C9.81920573,8.73204324 10.1366667,8.1463582 10.7715983,7.73452296 C11.4065299,7.32268773 12.2773165,7.1167732 13.3839844,7.1167732 L14.9368815,7.1167732 L14.9368815,6.18459991 C14.9368815,5.71604485 14.7838882,5.34490549 14.4778971,5.07117069 C14.171906,4.79743589 13.7460748,4.66057055 13.2003906,4.66057055 C12.8230016,4.66057055 12.4902412,4.70742535 12.2020996,4.80113636 C11.913958,4.89484738 11.6806433,5.02308157 11.5021484,5.1858428 L11.3415039,6.02923769 L10.1787435,6.02923769 L10.1787435,4.47561553 C10.5561325,4.18461818 11.0125624,3.95157719 11.5480469,3.77648556 C12.0835313,3.60139393 12.6649057,3.51384943 13.2921875,3.51384943 C14.2305602,3.51384943 14.9904268,3.7456574 15.5718099,4.2092803 C16.153193,4.6729032 16.4438802,5.33626857 16.4438802,6.19939631 L16.4438802,10.0538589 C16.4438802,10.1574342 16.4451552,10.258542 16.4477051,10.3571851 C16.450255,10.4558283 16.4566297,10.55447 16.4668294,10.6531132 L17.0788086,10.7344934 L17.0788086,11.6666667 L15.1051758,11.6666667 Z M12.6802083,10.6013258 C13.1799938,10.6013258 13.6364237,10.4854218 14.0495117,10.2536103 C14.4625997,10.0217989 14.7583867,9.7431361 14.9368815,9.41761364 L14.9368815,8.1007339 L13.3304362,8.1007339 C12.7133541,8.1007339 12.2250506,8.23883227 11.8655111,8.51503314 C11.5059715,8.79123402 11.3262044,9.12661577 11.3262044,9.52118845 C11.3262044,9.8713717 11.4383995,10.1389373 11.662793,10.3238932 C11.8871865,10.5088492 12.2263215,10.6013258 12.6802083,10.6013258 Z M18.3333659,4.60138494 L18.3333659,3.66181345 L20.9266276,3.66181345 L21.0719727,4.82333097 C21.3065658,4.41396181 21.5959781,4.09337632 21.9402181,3.86156487 C22.2844581,3.62975342 22.6784158,3.51384943 23.1221029,3.51384943 C23.2393995,3.51384943 23.3605191,3.52248058 23.4854655,3.53974313 C23.6104119,3.55700569 23.7060327,3.57550101 23.7723307,3.59522964 L23.5734375,4.94910038 L22.7166667,4.90471117 C22.3188782,4.90471117 21.9848429,4.99472172 21.7145508,5.1747455 C21.4442586,5.35476929 21.2351678,5.60753862 21.0872721,5.93306108 L21.0872721,10.5273437 L22.3341797,10.7344934 L22.3341797,11.6666667 L18.3333659,11.6666667 L18.3333659,10.7344934 L19.5802734,10.5273437 L19.5802734,4.80853456 L18.3333659,4.60138494 Z M24.8126953,10.7344934 L26.0596029,10.5273437 L26.0596029,4.80853456 L24.8126953,4.60138494 L24.8126953,3.66181345 L27.5666016,3.66181345 L27.5666016,10.5273437 L28.8135091,10.7344934 L28.8135091,11.6666667 L24.8126953,11.6666667 L24.8126953,10.7344934 Z M27.5666016,1.61251184 L26.0596029,1.61251184 L26.0596029,0.125473485 L27.5666016,0.125473485 L27.5666016,1.61251184 Z M29.6626302,10.7344934 L30.9095378,10.5273437 L30.9095378,4.80853456 L29.6626302,4.60138494 L29.6626302,3.66181345 L32.2635417,3.66181345 L32.3629883,4.70495975 C32.6281806,4.32518355 32.9698655,4.03172452 33.3880534,3.82457386 C33.8062412,3.61742321 34.2907199,3.51384943 34.8415039,3.51384943 C35.3922879,3.51384943 35.8652921,3.63715154 36.2605306,3.88375947 C36.6557691,4.13036739 36.952831,4.50027373 37.1517253,4.99348958 C37.4118177,4.539731 37.7560525,4.17968883 38.1844401,3.91335227 C38.6128277,3.64701571 39.1126057,3.51384943 39.6837891,3.51384943 C40.5303645,3.51384943 41.1984351,3.79374523 41.6880208,4.35354522 C42.1776066,4.91334521 42.4223958,5.75549864 42.4223958,6.88003078 L42.4223958,10.5273437 L43.6693034,10.7344934 L43.6693034,11.6666667 L39.6608398,11.6666667 L39.6608398,10.7344934 L40.9077474,10.5273437 L40.9077474,6.86523437 C40.9077474,6.07608902 40.7675036,5.51753044 40.4870117,5.1895419 C40.2065199,4.86155336 39.7908882,4.69756155 39.2401042,4.69756155 C38.7148194,4.69756155 38.292813,4.87634962 37.9740723,5.23393111 C37.6553315,5.5915126 37.4704647,6.04156531 37.4194661,6.58410275 L37.4194661,10.5273437 L38.6663737,10.7344934 L38.6663737,11.6666667 L34.6655599,11.6666667 L34.6655599,10.7344934 L35.9124674,10.5273437 L35.9124674,6.86523437 C35.9124674,6.11554628 35.7683988,5.56685188 35.4802572,5.21913471 C35.1921155,4.87141753 34.7752089,4.69756155 34.2295247,4.69756155 C33.7705381,4.69756155 33.3931547,4.78880512 33.0973633,4.97129498 C32.8015719,5.15378485 32.5746319,5.41025324 32.4165365,5.74070786 L32.4165365,10.5273437 L33.663444,10.7344934 L33.663444,11.6666667 L29.6626302,11.6666667 L29.6626302,10.7344934 Z M50.1639323,11.6666667 C50.1180336,11.4496517 50.0823352,11.2548344 50.0568359,11.0822088 C50.0313367,10.9095833 50.0134875,10.7369603 50.0032878,10.5643348 C49.7125962,10.9243823 49.3492372,11.2240065 48.9131999,11.4632161 C48.4771625,11.7024258 48.011808,11.8220289 47.5171224,11.8220289 C46.6552474,11.8220289 45.9999263,11.6185804 45.5511393,11.2116773 C45.1023524,10.8047742 44.8779622,10.2314194 44.8779622,9.49159564 C44.8779622,8.73204324 45.1954233,8.1463582 45.8303548,7.73452296 C46.4652864,7.32268773 47.336073,7.1167732 48.4427409,7.1167732 L49.995638,7.1167732 L49.995638,6.18459991 C49.995638,5.71604485 49.8426448,5.34490549 49.5366536,5.07117069 C49.2306625,4.79743589 48.8048313,4.66057055 48.2591471,4.66057055 C47.8817581,4.66057055 47.5489978,4.70742535 47.2608561,4.80113636 C46.9727145,4.89484738 46.7393998,5.02308157 46.5609049,5.1858428 L46.4002604,6.02923769 L45.2375,6.02923769 L45.2375,4.47561553 C45.614889,4.18461818 46.0713189,3.95157719 46.6068034,3.77648556 C47.1422878,3.60139393 47.7236622,3.51384943 48.350944,3.51384943 C49.2893168,3.51384943 50.0491833,3.7456574 50.6305664,4.2092803 C51.2119495,4.6729032 51.5026367,5.33626857 51.5026367,6.19939631 L51.5026367,10.0538589 C51.5026367,10.1574342 51.5039117,10.258542 51.5064616,10.3571851 C51.5090115,10.4558283 51.5153862,10.55447 51.5255859,10.6531132 L52.1375651,10.7344934 L52.1375651,11.6666667 L50.1639323,11.6666667 Z M47.7389648,10.6013258 C48.2387503,10.6013258 48.6951802,10.4854218 49.1082682,10.2536103 C49.5213562,10.0217989 49.8171432,9.7431361 49.995638,9.41761364 L49.995638,8.1007339 L48.3891927,8.1007339 C47.7721106,8.1007339 47.2838071,8.23883227 46.9242676,8.51503314 C46.564728,8.79123402 46.3849609,9.12661577 46.3849609,9.52118845 C46.3849609,9.8713717 46.497156,10.1389373 46.7215495,10.3238932 C46.945943,10.5088492 47.285078,10.6013258 47.7389648,10.6013258 Z M53.1855794,1.06504498 L53.1855794,0.125473485 L55.9394857,0.125473485 L55.9394857,10.5273437 L57.1863932,10.7344934 L57.1863932,11.6666667 L53.1855794,11.6666667 L53.1855794,10.7344934 L54.432487,10.5273437 L54.432487,1.2721946 L53.1855794,1.06504498 Z" id="parimal" fill="#000000"></path>
            <path d="M63.7573665,4.32025331 L62.7246517,4.39423532 L64.7900814,9.66175426 L65.0578223,10.6013258 L65.1037207,10.6013258 L65.3944108,9.66175426 L67.4292415,4.39423532 L66.3965267,4.32025331 L66.3965267,3.66181345 L69.1810319,3.66181345 L69.1810319,4.32025331 L68.3701595,4.38683712 L65.447959,11.6666667 L64.713584,11.6666667 L61.7837337,4.38683712 L60.9728613,4.32025331 L60.9728613,3.66181345 L63.7573665,3.66181345 L63.7573665,4.32025331 Z M78.1312272,4.32025331 L77.2897559,4.38683712 L73.9468197,12.9465554 C73.7326259,13.4890928 73.4546881,13.9502427 73.112998,14.3300189 C72.771308,14.7097951 72.27153,14.8996804 71.6136491,14.8996804 C71.5065522,14.8996804 71.3765079,14.8885832 71.2235124,14.8663885 C71.0705168,14.8441938 70.9583218,14.8207664 70.8869238,14.7961056 L70.9940202,14.0562855 C71.0552184,14.0661498 71.1533891,14.077247 71.2885352,14.0895774 C71.4236812,14.1019078 71.519302,14.1080729 71.5754004,14.1080729 C71.9782887,14.1080729 72.2970247,13.9724406 72.5316178,13.7011719 C72.766211,13.4299032 72.9727519,13.0772591 73.1512467,12.6432292 L73.5796322,11.5704901 L70.6421322,4.38683712 L69.8006608,4.32025331 L69.8006608,3.66181345 L72.6463639,3.66181345 L72.6463639,4.32025331 L71.6595475,4.39423532 L73.6790788,9.49899384 L73.9697689,10.4607599 L74.0156673,10.4607599 L76.2799902,4.39423532 L75.2702246,4.32025331 L75.2702246,3.66181345 L78.1312272,3.66181345 L78.1312272,4.32025331 Z M84.7712012,11.6666667 C84.7100029,11.3953979 84.6666549,11.1611239 84.6411556,10.9638376 C84.6156563,10.7665513 84.6029069,10.5668018 84.6029069,10.3645833 C84.2969158,10.7838168 83.8889338,11.1315288 83.3789486,11.4077296 C82.8689634,11.6839305 82.2952386,11.8220289 81.6577572,11.8220289 C80.8468807,11.8220289 80.2196083,11.6198134 79.7759212,11.2153764 C79.3322341,10.8109394 79.1103939,10.263478 79.1103939,9.57297585 C79.1103939,8.83315208 79.4393294,8.24623402 80.0972103,7.81220407 C80.7550912,7.37817412 81.6475519,7.16116241 82.7746191,7.16116241 L84.6029069,7.16116241 L84.6029069,6.1032197 C84.6029069,5.53108931 84.4129403,5.08226962 84.0330013,4.75674716 C83.6530623,4.4312247 83.1214108,4.26846591 82.4380306,4.26846591 C81.9790439,4.26846591 81.5595874,4.32888394 81.1796484,4.44972183 C80.7997095,4.57055971 80.4822485,4.73455152 80.2272559,4.94170218 L80.1507585,6.01444129 L79.3934342,6.01444129 L79.401084,4.47561553 C79.7835729,4.18955034 80.2412777,3.95774237 80.7742122,3.78018466 C81.3071468,3.60262695 81.8744968,3.51384943 82.4762793,3.51384943 C83.3891528,3.51384943 84.1235204,3.73825928 84.6794043,4.1870857 C85.2352882,4.63591212 85.5132259,5.27954915 85.5132259,6.1180161 L85.5132259,10.0538589 C85.5132259,10.2166201 85.5170507,10.3732138 85.5247005,10.5236446 C85.5323503,10.6740755 85.5489246,10.820805 85.5744238,10.9638376 L86.4005957,11.015625 L86.4005957,11.6666667 L84.7712012,11.6666667 Z M81.7572038,11.0378196 C82.4201845,11.0378196 83.0041088,10.8898571 83.5089941,10.5939276 C84.0138795,10.297998 84.3785134,9.9157615 84.6029069,9.44720644 L84.6029069,7.84179687 L82.7593197,7.84179687 C81.9280438,7.84179687 81.2637981,8.00825473 80.7665625,8.34117543 C80.2693269,8.67409612 80.0207129,9.09455633 80.0207129,9.60256866 C80.0207129,10.0316664 80.1749811,10.3781454 80.4835221,10.6420159 C80.7920632,10.9058863 81.2166195,11.0378196 81.7572038,11.0378196 Z M93.706097,6.1328125 L92.9564225,6.1328125 L92.8493262,5.00088778 C92.6198328,4.76907633 92.3304206,4.58905525 91.9810807,4.46081913 C91.6317409,4.33258301 91.2301336,4.26846591 90.7762467,4.26846591 C90.1081661,4.26846591 89.6071132,4.4077973 89.2730729,4.68646425 C88.9390326,4.96513121 88.772015,5.29188181 88.772015,5.66672585 C88.772015,6.03663774 88.9160836,6.34242698 89.2042253,6.58410275 C89.4923669,6.82577851 90.0673666,7.03785815 90.9292415,7.22034801 C91.913513,7.43243083 92.6504305,7.72219079 93.1400163,8.0896366 C93.6296021,8.45708241 93.8743913,8.95645597 93.8743913,9.58777225 C93.8743913,10.2536137 93.5951786,10.7924439 93.0367448,11.2042791 C92.478311,11.6161144 91.7401185,11.8220289 90.8221452,11.8220289 C90.210163,11.8220289 89.6530125,11.7394165 89.1506771,11.5741892 C88.6483417,11.4089618 88.2135858,11.1759209 87.8463965,10.8750592 L87.8463965,9.26225142 L88.5884212,9.26225142 L88.7184668,10.4015743 C88.9632597,10.6383179 89.273071,10.8097079 89.6479102,10.9157493 C90.0227493,11.0217907 90.414157,11.0748106 90.8221452,11.0748106 C91.4851259,11.0748106 92.0078529,10.9342462 92.3903418,10.6531132 C92.7728307,10.3719801 92.9640723,10.0316663 92.9640723,9.63216146 C92.9640723,9.25731741 92.8047043,8.92933379 92.4859635,8.64820076 C92.1672228,8.36706772 91.5922231,8.13772579 90.7609473,7.96016809 C89.7766759,7.75301743 89.046133,7.47805372 88.5692969,7.1352687 C88.0924607,6.79248369 87.8540462,6.31283847 87.8540462,5.69631866 C87.8540462,5.084731 88.1217844,4.56809515 88.6572689,4.1463956 C89.1927533,3.72469604 89.8990722,3.51384943 90.7762467,3.51384943 C91.3831291,3.51384943 91.9377297,3.60385997 92.4400651,3.78388376 C92.9424005,3.96390754 93.3516575,4.20681271 93.6678483,4.51260653 L93.706097,6.1328125 Z" id="vyas" fill="#44484B"></path>
        </g>
        <rect id="Rectangle" stroke="#44484B" stroke-width="0.5" fill="#FFFFFF" x="0.75" y="0.25" width="2.5" height="2.5"></rect>
        <rect id="Rectangle-Copy" stroke="#44484B" stroke-width="0.5" fill="#FFFFFF" x="0.75" y="14.25" width="2.5" height="2.5"></rect>
        <rect id="Rectangle-Copy-2" stroke="#44484B" stroke-width="0.5" fill="#FFFFFF" x="0.75" y="26.25" width="2.5" height="2.5"></rect>
        <rect id="Rectangle-Copy-5" stroke="#44484B" stroke-width="0.5" fill="#FFFFFF" x="56.25" y="0.25" width="2.5" height="2.5"></rect>
        <rect id="Rectangle-Copy-4" stroke="#44484B" stroke-width="0.5" fill="#FFFFFF" x="110.75" y="14.25" width="2.5" height="2.5"></rect>
        <rect id="Rectangle-Copy-7" stroke="#44484B" stroke-width="0.5" fill="#FFFFFF" x="110.75" y="26.25" width="2.5" height="2.5"></rect>
        <rect id="Rectangle-Copy-6" stroke="#44484B" stroke-width="0.5" fill="#FFFFFF" x="110.75" y="0.25" width="2.5" height="2.5"></rect>
        <rect id="Rectangle-Copy-3" stroke="#44484B" stroke-width="0.5" fill="#FFFFFF" x="56.25" y="26.25" width="2.5" height="2.5"></rect>
    </g>
</svg>
