<?xml version="1.0" encoding="UTF-8"?>
<svg width="151px" height="39px" viewBox="0 0 151 39" version="1.1" xmlns="http://www.w3.org/2000/svg" xmlns:xlink="http://www.w3.org/1999/xlink">
    <!-- Generator: Sketch 56.3 (81716) - https://sketch.com -->
    <title>logo-2</title>
    <desc>Created with Sketch.</desc>
    <g id="logo-2" stroke="none" stroke-width="1" fill="none" fill-rule="evenodd">
        <rect id="Rectangle" stroke="#44484B" stroke-width="0.25" x="2.125" y="2.125" width="146.75" height="34.75"></rect>
        <g id="Group" transform="translate(12.000000, 10.000000)" fill-rule="nonzero">
            <path d="M0.0467936198,18.4063289 L1.70491536,18.1301294 L1.70491536,6.41137942 L0.0467936198,6.13517992 L0.0467936198,4.88241793 L3.42407227,4.88241793 L3.60717773,6.18450126 C3.9733905,5.69786162 4.41928177,5.32631126 4.94486491,5.06983902 C5.47044805,4.81336677 6.0790981,4.68513258 6.77083333,4.68513258 C8.13395864,4.68513258 9.19358617,5.20957756 9.94974772,6.25848327 C10.7059093,7.30738898 11.0839844,8.69330473 11.0839844,10.4162721 L11.0839844,10.6234217 C11.0839844,12.1622552 10.7042139,13.4034964 9.94466146,14.3471828 C9.18510905,15.2908691 8.13734934,15.7627052 6.80135091,15.7627052 C6.12317912,15.7627052 5.5280923,15.6525553 5.01607259,15.4322522 C4.50405289,15.2119491 4.06833405,14.8847875 3.70890299,14.4507576 L3.70890299,18.1301294 L5.36702474,18.4063289 L5.36702474,19.6590909 L0.0467936198,19.6590909 L0.0467936198,18.4063289 Z M9.06982422,10.4162721 C9.06982422,9.199673 8.82568604,8.20339193 8.33740234,7.42739899 C7.84911865,6.65140605 7.12348572,6.2634154 6.16048177,6.2634154 C5.59081746,6.2634154 5.1025411,6.38836155 4.69563802,6.63825758 C4.28873494,6.88815361 3.95982656,7.23011147 3.70890299,7.66414141 L3.70890299,12.8626105 C3.95982656,13.3032166 4.28703954,13.6435305 4.69055176,13.8835622 C5.09406398,14.1235939 5.59081736,14.243608 6.18082682,14.243608 C7.13026733,14.243608 7.84911865,13.9082262 8.33740234,13.2374527 C8.82568604,12.5666791 9.06982422,11.6953442 9.06982422,10.6234217 L9.06982422,10.4162721 Z M20.0866699,15.5555556 C20.0256345,15.2662023 19.9781631,15.0064458 19.9442546,14.7762784 C19.910346,14.546111 19.8866103,14.3159471 19.8730469,14.0857797 C19.486489,14.5658431 19.0032988,14.9653419 18.4234619,15.2842882 C17.843625,15.6032344 17.2248026,15.7627052 16.5669759,15.7627052 C15.4208656,15.7627052 14.5494279,15.4914405 13.9526367,14.9489031 C13.3558455,14.4063657 13.0574544,13.6418926 13.0574544,12.6554609 C13.0574544,11.6427243 13.47961,10.8618109 14.3239339,10.3126973 C15.1682578,9.76358364 16.3262188,9.48903093 17.7978516,9.48903093 L19.8628743,9.48903093 L19.8628743,8.24613321 C19.8628743,7.62139313 19.6594259,7.12654065 19.2525228,6.76156092 C18.8456197,6.39658119 18.2793548,6.21409407 17.5537109,6.21409407 C17.0518638,6.21409407 16.6093634,6.27656714 16.2261963,6.40151515 C15.8430292,6.52646317 15.5327703,6.6974421 15.2954102,6.91445707 L15.0817871,8.03898359 L13.5355632,8.03898359 L13.5355632,5.96748737 C14.0374103,5.57949091 14.6443649,5.26876958 15.3564453,5.03531408 C16.0685257,4.80185858 16.8416299,4.68513258 17.6757813,4.68513258 C18.9236174,4.68513258 19.9340782,4.99420987 20.707194,5.61237374 C21.4803099,6.2305376 21.866862,7.11502476 21.866862,8.26586174 L21.866862,13.4051452 C21.866862,13.5432456 21.8685574,13.678056 21.8719482,13.8095802 C21.8753391,13.9411044 21.8838161,14.0726267 21.8973796,14.2041509 L22.7111816,14.3126578 L22.7111816,15.5555556 L20.0866699,15.5555556 Z M16.8619792,14.135101 C17.5265875,14.135101 18.1335422,13.9805624 18.6828613,13.6714804 C19.2321805,13.3623985 19.6255142,12.9908481 19.8628743,12.5568182 L19.8628743,10.8009785 L17.7266439,10.8009785 C16.906056,10.8009785 16.2567163,10.9851097 15.7786051,11.3533775 C15.300494,11.7216454 15.0614421,12.168821 15.0614421,12.6949179 C15.0614421,13.1618289 15.2106376,13.518583 15.5090332,13.765191 C15.8074288,14.0117989 16.2584063,14.135101 16.8619792,14.135101 Z M24.3794759,6.13517992 L24.3794759,4.88241793 L27.8279622,4.88241793 L28.0212402,6.43110795 C28.3331993,5.88528241 28.718056,5.45783509 29.1758219,5.14875316 C29.6335879,4.83967122 30.1574678,4.68513258 30.7474772,4.68513258 C30.9034567,4.68513258 31.0645201,4.69664077 31.2306722,4.71965751 C31.3968243,4.74267425 31.5239796,4.76733467 31.6121419,4.79363952 L31.3476562,6.59880051 L30.2083333,6.5396149 C29.6793593,6.5396149 29.2351635,6.65962896 28.8757324,6.89966067 C28.5163014,7.13969238 28.2382551,7.47671816 28.0415853,7.91074811 L28.0415853,14.0364583 L29.699707,14.3126578 L29.699707,15.5555556 L24.3794759,15.5555556 L24.3794759,14.3126578 L26.0375977,14.0364583 L26.0375977,6.41137942 L24.3794759,6.13517992 Z M32.9956055,14.3126578 L34.6537272,14.0364583 L34.6537272,6.41137942 L32.9956055,6.13517992 L32.9956055,4.88241793 L36.6577148,4.88241793 L36.6577148,14.0364583 L38.3158366,14.3126578 L38.3158366,15.5555556 L32.9956055,15.5555556 L32.9956055,14.3126578 Z M36.6577148,2.15001578 L34.6537272,2.15001578 L34.6537272,0.16729798 L36.6577148,0.16729798 L36.6577148,2.15001578 Z M39.444987,14.3126578 L41.1031087,14.0364583 L41.1031087,6.41137942 L39.444987,6.13517992 L39.444987,4.88241793 L42.9036458,4.88241793 L43.0358887,6.27327967 C43.388538,5.7669114 43.8429063,5.37563269 44.3990072,5.09943182 C44.955108,4.82323094 45.5993616,4.68513258 46.3317871,4.68513258 C47.0642126,4.68513258 47.6932076,4.84953539 48.2187907,5.17834596 C48.7443738,5.50715653 49.139403,6.00036498 49.40389,6.65798611 C49.7497576,6.05297467 50.2075167,5.57291844 50.777181,5.21780303 C51.3468453,4.86268762 52.0114437,4.68513258 52.7709961,4.68513258 C53.8967613,4.68513258 54.785153,5.05832697 55.4361979,5.80472696 C56.0872428,6.55112694 56.4127604,7.67399818 56.4127604,9.17337437 L56.4127604,14.0364583 L58.0708822,14.3126578 L58.0708822,15.5555556 L52.7404785,15.5555556 L52.7404785,14.3126578 L54.3986003,14.0364583 L54.3986003,9.15364583 C54.3986003,8.10145202 54.2121058,7.35670726 53.8391113,6.9193892 C53.4661168,6.48207115 52.9134151,6.2634154 52.1809896,6.2634154 C51.4824726,6.2634154 50.9212939,6.50179949 50.4974365,6.97857481 C50.0735792,7.45535013 49.8277456,8.05542042 49.7599284,8.77880366 L49.7599284,14.0364583 L51.4180501,14.3126578 L51.4180501,15.5555556 L46.097819,15.5555556 L46.097819,14.3126578 L47.7559408,14.0364583 L47.7559408,9.15364583 C47.7559408,8.15406171 47.5643601,7.42246917 47.181193,6.95884628 C46.798026,6.49522338 46.2436288,6.2634154 45.517985,6.2634154 C44.9076304,6.2634154 44.4057908,6.38507349 44.0124512,6.62839331 C43.6191115,6.87171313 43.3173296,7.21367099 43.1070964,7.65427715 L43.1070964,14.0364583 L44.7652181,14.3126578 L44.7652181,15.5555556 L39.444987,15.5555556 L39.444987,14.3126578 Z M66.7073568,15.5555556 C66.6463213,15.2662023 66.59885,15.0064458 66.5649414,14.7762784 C66.5310328,14.546111 66.5072972,14.3159471 66.4937337,14.0857797 C66.1071758,14.5658431 65.6239856,14.9653419 65.0441488,15.2842882 C64.4643119,15.6032344 63.8454894,15.7627052 63.1876628,15.7627052 C62.0415524,15.7627052 61.1701147,15.4914405 60.5733236,14.9489031 C59.9765324,14.4063657 59.6781413,13.6418926 59.6781413,12.6554609 C59.6781413,11.6427243 60.1002969,10.8618109 60.9446208,10.3126973 C61.7889447,9.76358364 62.9469056,9.48903093 64.4185384,9.48903093 L66.4835612,9.48903093 L66.4835612,8.24613321 C66.4835612,7.62139313 66.2801127,7.12654065 65.8732096,6.76156092 C65.4663066,6.39658119 64.9000416,6.21409407 64.1743978,6.21409407 C63.6725507,6.21409407 63.2300502,6.27656714 62.8468831,6.40151515 C62.4637161,6.52646317 62.1534571,6.6974421 61.916097,6.91445707 L61.702474,8.03898359 L60.15625,8.03898359 L60.15625,5.96748737 C60.6580971,5.57949091 61.2650518,5.26876958 61.9771322,5.03531408 C62.6892125,4.80185858 63.4623168,4.68513258 64.2964681,4.68513258 C65.5443042,4.68513258 66.554765,4.99420987 67.3278809,5.61237374 C68.1009967,6.2305376 68.4875488,7.11502476 68.4875488,8.26586174 L68.4875488,13.4051452 C68.4875488,13.5432456 68.4892442,13.678056 68.4926351,13.8095802 C68.496026,13.9411044 68.504503,14.0726267 68.5180664,14.2041509 L69.3318685,14.3126578 L69.3318685,15.5555556 L66.7073568,15.5555556 Z M63.482666,14.135101 C64.1472744,14.135101 64.754229,13.9805624 65.3035482,13.6714804 C65.8528673,13.3623985 66.2462011,12.9908481 66.4835612,12.5568182 L66.4835612,10.8009785 L64.3473307,10.8009785 C63.5267429,10.8009785 62.8774031,10.9851097 62.399292,11.3533775 C61.9211809,11.7216454 61.6821289,12.168821 61.6821289,12.6949179 C61.6821289,13.1618289 61.8313245,13.518583 62.1297201,13.765191 C62.4281156,14.0117989 62.8790931,14.135101 63.482666,14.135101 Z M70.7255046,1.42005997 L70.7255046,0.16729798 L74.3876139,0.16729798 L74.3876139,14.0364583 L76.0457357,14.3126578 L76.0457357,15.5555556 L70.7255046,15.5555556 L70.7255046,14.3126578 L72.3836263,14.0364583 L72.3836263,1.69625947 L70.7255046,1.42005997 Z" id="parimal" fill="#000000"></path>
            <path d="M84.7837321,5.76033775 L83.4104411,5.85898043 L86.1570231,12.882339 L86.5130615,14.135101 L86.5740967,14.135101 L86.9606527,12.882339 L89.6665446,5.85898043 L88.2932536,5.76033775 L88.2932536,4.88241793 L91.9960531,4.88241793 L91.9960531,5.76033775 L90.9177653,5.84911616 L87.0318604,15.5555556 L86.0552979,15.5555556 L82.1592204,5.84911616 L81.0809326,5.76033775 L81.0809326,4.88241793 L84.7837321,4.88241793 L84.7837321,5.76033775 Z M103.897909,5.76033775 L102.778931,5.84911616 L98.3335368,17.2620739 C98.0487046,17.9854571 97.6791065,18.6003236 97.2247314,19.1066919 C96.7703563,19.6130602 96.105758,19.8662405 95.2309163,19.8662405 C95.0885003,19.8662405 94.9155691,19.8514443 94.7121175,19.8218513 C94.508666,19.7922584 94.3594704,19.7610218 94.2645264,19.7281408 L94.4069417,18.741714 C94.4883223,18.7548664 94.6188685,18.7696627 94.798584,18.7861032 C94.9782995,18.8025437 95.1054548,18.8107639 95.1800537,18.8107639 C95.7158094,18.8107639 96.1396604,18.6299208 96.4516195,18.2682292 C96.7635785,17.9065375 97.0382339,17.4363455 97.2755941,16.8576389 L97.8452555,15.4273201 L93.9390055,5.84911616 L92.8200277,5.76033775 L92.8200277,4.88241793 L96.6042074,4.88241793 L96.6042074,5.76033775 L95.2919515,5.85898043 L97.9774984,12.6653251 L98.3640544,13.9476799 L98.4250895,13.9476799 L101.436157,5.85898043 L100.093384,5.76033775 L100.093384,4.88241793 L103.897909,4.88241793 L103.897909,5.76033775 Z M112.727661,15.5555556 C112.646281,15.1938639 112.588637,14.8814986 112.554728,14.6184501 C112.52082,14.3554017 112.503866,14.0890691 112.503866,13.8194444 C112.096962,14.3784224 111.554433,14.8420384 110.876261,15.2103062 C110.19809,15.578574 109.435158,15.7627052 108.587443,15.7627052 C107.50915,15.7627052 106.675011,15.4930846 106.085002,14.9538352 C105.494992,14.4145859 105.199992,13.6846374 105.199992,12.7639678 C105.199992,11.7775361 105.637406,10.9949787 106.512248,10.4162721 C107.387089,9.8375655 108.573872,9.54821654 110.072632,9.54821654 L112.503866,9.54821654 L112.503866,8.13762626 C112.503866,7.37478575 112.25125,6.77635949 111.746012,6.34232955 C111.240774,5.9082996 110.533791,5.69128788 109.625041,5.69128788 C109.014686,5.69128788 108.456898,5.77184526 107.95166,5.93296244 C107.446422,6.09407961 107.024267,6.31273536 106.685181,6.58893624 L106.583455,8.01925505 L105.576375,8.01925505 L105.586548,5.96748737 C106.095177,5.58606712 106.703827,5.27698982 107.412516,5.04024621 C108.121206,4.8035026 108.875661,4.68513258 109.675903,4.68513258 C110.889831,4.68513258 111.866384,4.9843457 112.605591,5.58278093 C113.344798,6.18121617 113.714396,7.03939887 113.714396,8.1573548 L113.714396,13.4051452 C113.714396,13.6221602 113.719482,13.8309518 113.729655,14.0315262 C113.739828,14.2321006 113.761868,14.42774 113.795776,14.6184501 L114.894409,14.6875 L114.894409,15.5555556 L112.727661,15.5555556 Z M108.719686,14.7170928 C109.601309,14.7170928 110.377804,14.5198094 111.049194,14.1252367 C111.720584,13.7306641 112.20547,13.2210153 112.503866,12.5962753 L112.503866,10.4557292 L110.052287,10.4557292 C108.946867,10.4557292 108.063561,10.677673 107.402344,11.1215672 C106.741126,11.5654615 106.410522,12.1260751 106.410522,12.8034249 C106.410522,13.3755553 106.615666,13.8375272 107.02596,14.1893545 C107.436254,14.5411818 108.000824,14.7170928 108.719686,14.7170928 Z M124.609172,8.17708333 L123.612264,8.17708333 L123.469849,6.66785038 C123.164671,6.35876845 122.779815,6.11874033 122.315267,5.94775884 C121.850719,5.77677734 121.316667,5.69128788 120.713094,5.69128788 C119.824689,5.69128788 119.158395,5.87706306 118.714193,6.248619 C118.26999,6.62017494 118.047892,7.05584241 118.047892,7.55563447 C118.047892,8.04885032 118.239473,8.45656931 118.62264,8.77880366 C119.005807,9.10103802 119.770434,9.38381086 120.916545,9.62713068 C122.225416,9.90990777 123.20536,10.2962544 123.856405,10.7861821 C124.50745,11.2761099 124.832967,11.9419413 124.832967,12.7836963 C124.832967,13.6714849 124.461674,14.3899252 123.719076,14.9390388 C122.976477,15.4881525 121.994838,15.7627052 120.774129,15.7627052 C119.960323,15.7627052 119.219432,15.6525553 118.551432,15.4322522 C117.883433,15.2119491 117.3053,14.9012278 116.817017,14.5000789 L116.817017,12.3496686 L117.803752,12.3496686 L117.976685,13.8687658 C118.302207,14.1844239 118.71419,14.4129438 119.212646,14.5543324 C119.711103,14.6957209 120.231592,14.7664141 120.774129,14.7664141 C121.655753,14.7664141 122.350868,14.5789949 122.859497,14.2041509 C123.368126,13.8293068 123.622437,13.3755551 123.622437,12.8428819 C123.622437,12.3430899 123.410511,11.9057784 122.986654,11.5309343 C122.562796,11.1560903 121.798169,10.8503011 120.692749,10.6135574 C119.383877,10.3373566 118.412411,9.97073829 117.77832,9.5136916 C117.14423,9.05664492 116.827189,8.41711796 116.827189,7.59509154 C116.827189,6.77964134 117.183224,6.09079353 117.895304,5.52852746 C118.607385,4.96626139 119.546639,4.68513258 120.713094,4.68513258 C121.520119,4.68513258 122.257619,4.80514663 122.925618,5.04517835 C123.593618,5.28521006 124.137842,5.60908361 124.558309,6.01680871 L124.609172,8.17708333 Z" id="vyas" fill="#44484B"></path>
        </g>
        <rect id="Rectangle" stroke="#44484B" stroke-width="0.5" fill="#FFFFFF" x="0.25" y="0.25" width="3.5" height="3.5"></rect>
        <rect id="Rectangle-Copy" stroke="#44484B" stroke-width="0.5" fill="#FFFFFF" x="0.25" y="18.25" width="3.5" height="3.5"></rect>
        <rect id="Rectangle-Copy-2" stroke="#44484B" stroke-width="0.5" fill="#FFFFFF" x="0.25" y="35.25" width="3.5" height="3.5"></rect>
        <rect id="Rectangle-Copy-5" stroke="#44484B" stroke-width="0.5" fill="#FFFFFF" x="74.25" y="0.25" width="3.5" height="3.5"></rect>
        <rect id="Rectangle-Copy-4" stroke="#44484B" stroke-width="0.5" fill="#FFFFFF" x="147.25" y="18.25" width="3.5" height="3.5"></rect>
        <rect id="Rectangle-Copy-7" stroke="#44484B" stroke-width="0.5" fill="#FFFFFF" x="147.25" y="35.25" width="3.5" height="3.5"></rect>
        <rect id="Rectangle-Copy-6" stroke="#44484B" stroke-width="0.5" fill="#FFFFFF" x="147.25" y="0.25" width="3.5" height="3.5"></rect>
        <rect id="Rectangle-Copy-3" stroke="#44484B" stroke-width="0.5" fill="#FFFFFF" x="74.25" y="35.25" width="3.5" height="3.5"></rect>
    </g>
</svg>
