<?xml version="1.0" encoding="UTF-8"?>
<svg width="151px" height="39px" viewBox="0 0 151 39" version="1.1" xmlns="http://www.w3.org/2000/svg" xmlns:xlink="http://www.w3.org/1999/xlink">
    <title>logotype3</title>
    <desc>Parimal Vyas Logo</desc>
    <g id="Page-1" stroke="none" stroke-width="1" fill="none" fill-rule="evenodd">
        <g id="logotype3">
            <g id="nameLogo" transform="translate(2.000000, 2.000000)">
                <rect id="outer-copy" stroke="#44484B" stroke-width="0.25" fill="#D8D8D8" opacity="0" x="0" y="0" width="147" height="35"></rect>
                <path d="M11.0467936,25.4063289 L12.7049154,25.1301294 L12.7049154,13.4113794 L11.0467936,13.1351799 L11.0467936,11.8824179 L14.4240723,11.8824179 L14.6071777,13.1845013 C14.9733905,12.6978616 15.4192818,12.3263113 15.9448649,12.069839 C16.4704481,11.8133668 17.0790981,11.6851326 17.7708333,11.6851326 C19.1339586,11.6851326 20.1935862,12.2095776 20.9497477,13.2584833 C21.7059093,14.307389 22.0839844,15.6933047 22.0839844,17.4162721 L22.0839844,17.6234217 C22.0839844,19.1622552 21.7042139,20.4034964 20.9446615,21.3471828 C20.1851091,22.2908691 19.1373493,22.7627052 17.8013509,22.7627052 C17.1231791,22.7627052 16.5280923,22.6525553 16.0160726,22.4322522 C15.5040529,22.2119491 15.0683341,21.8847875 14.708903,21.4507576 L14.708903,25.1301294 L16.3670247,25.4063289 L16.3670247,26.6590909 L11.0467936,26.6590909 L11.0467936,25.4063289 Z M20.0698242,17.4162721 C20.0698242,16.199673 19.825686,15.2033919 19.3374023,14.427399 C18.8491187,13.651406 18.1234857,13.2634154 17.1604818,13.2634154 C16.5908175,13.2634154 16.1025411,13.3883615 15.695638,13.6382576 C15.2887349,13.8881536 14.9598266,14.2301115 14.708903,14.6641414 L14.708903,19.8626105 C14.9598266,20.3032166 15.2870395,20.6435305 15.6905518,20.8835622 C16.094064,21.1235939 16.5908174,21.243608 17.1808268,21.243608 C18.1302673,21.243608 18.8491187,20.9082262 19.3374023,20.2374527 C19.825686,19.5666791 20.0698242,18.6953442 20.0698242,17.6234217 L20.0698242,17.4162721 Z M31.0866699,22.5555556 C31.0256345,22.2662023 30.9781631,22.0064458 30.9442546,21.7762784 C30.910346,21.546111 30.8866103,21.3159471 30.8730469,21.0857797 C30.486489,21.5658431 30.0032988,21.9653419 29.4234619,22.2842882 C28.843625,22.6032344 28.2248026,22.7627052 27.5669759,22.7627052 C26.4208656,22.7627052 25.5494279,22.4914405 24.9526367,21.9489031 C24.3558455,21.4063657 24.0574544,20.6418926 24.0574544,19.6554609 C24.0574544,18.6427243 24.47961,17.8618109 25.3239339,17.3126973 C26.1682578,16.7635836 27.3262188,16.4890309 28.7978516,16.4890309 L30.8628743,16.4890309 L30.8628743,15.2461332 C30.8628743,14.6213931 30.6594259,14.1265407 30.2525228,13.7615609 C29.8456197,13.3965812 29.2793548,13.2140941 28.5537109,13.2140941 C28.0518638,13.2140941 27.6093634,13.2765671 27.2261963,13.4015152 C26.8430292,13.5264632 26.5327703,13.6974421 26.2954102,13.9144571 L26.0817871,15.0389836 L24.5355632,15.0389836 L24.5355632,12.9674874 C25.0374103,12.5794909 25.6443649,12.2687696 26.3564453,12.0353141 C27.0685257,11.8018586 27.8416299,11.6851326 28.6757813,11.6851326 C29.9236174,11.6851326 30.9340782,11.9942099 31.707194,12.6123737 C32.4803099,13.2305376 32.866862,14.1150248 32.866862,15.2658617 L32.866862,20.4051452 C32.866862,20.5432456 32.8685574,20.678056 32.8719482,20.8095802 C32.8753391,20.9411044 32.8838161,21.0726267 32.8973796,21.2041509 L33.7111816,21.3126578 L33.7111816,22.5555556 L31.0866699,22.5555556 Z M27.8619792,21.135101 C28.5265875,21.135101 29.1335422,20.9805624 29.6828613,20.6714804 C30.2321805,20.3623985 30.6255142,19.9908481 30.8628743,19.5568182 L30.8628743,17.8009785 L28.7266439,17.8009785 C27.906056,17.8009785 27.2567163,17.9851097 26.7786051,18.3533775 C26.300494,18.7216454 26.0614421,19.168821 26.0614421,19.6949179 C26.0614421,20.1618289 26.2106376,20.518583 26.5090332,20.765191 C26.8074288,21.0117989 27.2584063,21.135101 27.8619792,21.135101 Z M35.3794759,13.1351799 L35.3794759,11.8824179 L38.8279622,11.8824179 L39.0212402,13.431108 C39.3331993,12.8852824 39.718056,12.4578351 40.1758219,12.1487532 C40.6335879,11.8396712 41.1574678,11.6851326 41.7474772,11.6851326 C41.9034567,11.6851326 42.0645201,11.6966408 42.2306722,11.7196575 C42.3968243,11.7426743 42.5239796,11.7673347 42.6121419,11.7936395 L42.3476562,13.5988005 L41.2083333,13.5396149 C40.6793593,13.5396149 40.2351635,13.659629 39.8757324,13.8996607 C39.5163014,14.1396924 39.2382551,14.4767182 39.0415853,14.9107481 L39.0415853,21.0364583 L40.699707,21.3126578 L40.699707,22.5555556 L35.3794759,22.5555556 L35.3794759,21.3126578 L37.0375977,21.0364583 L37.0375977,13.4113794 L35.3794759,13.1351799 Z M43.9956055,21.3126578 L45.6537272,21.0364583 L45.6537272,13.4113794 L43.9956055,13.1351799 L43.9956055,11.8824179 L47.6577148,11.8824179 L47.6577148,21.0364583 L49.3158366,21.3126578 L49.3158366,22.5555556 L43.9956055,22.5555556 L43.9956055,21.3126578 Z M47.6577148,9.15001578 L45.6537272,9.15001578 L45.6537272,7.16729798 L47.6577148,7.16729798 L47.6577148,9.15001578 Z M50.444987,21.3126578 L52.1031087,21.0364583 L52.1031087,13.4113794 L50.444987,13.1351799 L50.444987,11.8824179 L53.9036458,11.8824179 L54.0358887,13.2732797 C54.388538,12.7669114 54.8429063,12.3756327 55.3990072,12.0994318 C55.955108,11.8232309 56.5993616,11.6851326 57.3317871,11.6851326 C58.0642126,11.6851326 58.6932076,11.8495354 59.2187907,12.178346 C59.7443738,12.5071565 60.139403,13.000365 60.40389,13.6579861 C60.7497576,13.0529747 61.2075167,12.5729184 61.777181,12.217803 C62.3468453,11.8626876 63.0114437,11.6851326 63.7709961,11.6851326 C64.8967613,11.6851326 65.785153,12.058327 66.4361979,12.804727 C67.0872428,13.5511269 67.4127604,14.6739982 67.4127604,16.1733744 L67.4127604,21.0364583 L69.0708822,21.3126578 L69.0708822,22.5555556 L63.7404785,22.5555556 L63.7404785,21.3126578 L65.3986003,21.0364583 L65.3986003,16.1536458 C65.3986003,15.101452 65.2121058,14.3567073 64.8391113,13.9193892 C64.4661168,13.4820712 63.9134151,13.2634154 63.1809896,13.2634154 C62.4824726,13.2634154 61.9212939,13.5017995 61.4974365,13.9785748 C61.0735792,14.4553501 60.8277456,15.0554204 60.7599284,15.7788037 L60.7599284,21.0364583 L62.4180501,21.3126578 L62.4180501,22.5555556 L57.097819,22.5555556 L57.097819,21.3126578 L58.7559408,21.0364583 L58.7559408,16.1536458 C58.7559408,15.1540617 58.5643601,14.4224692 58.181193,13.9588463 C57.798026,13.4952234 57.2436288,13.2634154 56.517985,13.2634154 C55.9076304,13.2634154 55.4057908,13.3850735 55.0124512,13.6283933 C54.6191115,13.8717131 54.3173296,14.213671 54.1070964,14.6542772 L54.1070964,21.0364583 L55.7652181,21.3126578 L55.7652181,22.5555556 L50.444987,22.5555556 L50.444987,21.3126578 Z M77.7073568,22.5555556 C77.6463213,22.2662023 77.59885,22.0064458 77.5649414,21.7762784 C77.5310328,21.546111 77.5072972,21.3159471 77.4937337,21.0857797 C77.1071758,21.5658431 76.6239856,21.9653419 76.0441488,22.2842882 C75.4643119,22.6032344 74.8454894,22.7627052 74.1876628,22.7627052 C73.0415524,22.7627052 72.1701147,22.4914405 71.5733236,21.9489031 C70.9765324,21.4063657 70.6781413,20.6418926 70.6781413,19.6554609 C70.6781413,18.6427243 71.1002969,17.8618109 71.9446208,17.3126973 C72.7889447,16.7635836 73.9469056,16.4890309 75.4185384,16.4890309 L77.4835612,16.4890309 L77.4835612,15.2461332 C77.4835612,14.6213931 77.2801127,14.1265407 76.8732096,13.7615609 C76.4663066,13.3965812 75.9000416,13.2140941 75.1743978,13.2140941 C74.6725507,13.2140941 74.2300502,13.2765671 73.8468831,13.4015152 C73.4637161,13.5264632 73.1534571,13.6974421 72.916097,13.9144571 L72.702474,15.0389836 L71.15625,15.0389836 L71.15625,12.9674874 C71.6580971,12.5794909 72.2650518,12.2687696 72.9771322,12.0353141 C73.6892125,11.8018586 74.4623168,11.6851326 75.2964681,11.6851326 C76.5443042,11.6851326 77.554765,11.9942099 78.3278809,12.6123737 C79.1009967,13.2305376 79.4875488,14.1150248 79.4875488,15.2658617 L79.4875488,20.4051452 C79.4875488,20.5432456 79.4892442,20.678056 79.4926351,20.8095802 C79.496026,20.9411044 79.504503,21.0726267 79.5180664,21.2041509 L80.3318685,21.3126578 L80.3318685,22.5555556 L77.7073568,22.5555556 Z M74.482666,21.135101 C75.1472744,21.135101 75.754229,20.9805624 76.3035482,20.6714804 C76.8528673,20.3623985 77.2462011,19.9908481 77.4835612,19.5568182 L77.4835612,17.8009785 L75.3473307,17.8009785 C74.5267429,17.8009785 73.8774031,17.9851097 73.399292,18.3533775 C72.9211809,18.7216454 72.6821289,19.168821 72.6821289,19.6949179 C72.6821289,20.1618289 72.8313245,20.518583 73.1297201,20.765191 C73.4281156,21.0117989 73.8790931,21.135101 74.482666,21.135101 Z M81.7255046,8.42005997 L81.7255046,7.16729798 L85.3876139,7.16729798 L85.3876139,21.0364583 L87.0457357,21.3126578 L87.0457357,22.5555556 L81.7255046,22.5555556 L81.7255046,21.3126578 L83.3836263,21.0364583 L83.3836263,8.69625947 L81.7255046,8.42005997 Z" id="parimal" fill="#000000" fill-rule="nonzero"></path>
                <path d="M95.7837321,12.7603378 L94.4104411,12.8589804 L97.1570231,19.882339 L97.5130615,21.135101 L97.5740967,21.135101 L97.9606527,19.882339 L100.666545,12.8589804 L99.2932536,12.7603378 L99.2932536,11.8824179 L102.996053,11.8824179 L102.996053,12.7603378 L101.917765,12.8491162 L98.0318604,22.5555556 L97.0552979,22.5555556 L93.1592204,12.8491162 L92.0809326,12.7603378 L92.0809326,11.8824179 L95.7837321,11.8824179 L95.7837321,12.7603378 Z M114.897909,12.7603378 L113.778931,12.8491162 L109.333537,24.2620739 C109.048705,24.9854571 108.679107,25.6003236 108.224731,26.1066919 C107.770356,26.6130602 107.105758,26.8662405 106.230916,26.8662405 C106.0885,26.8662405 105.915569,26.8514443 105.712118,26.8218513 C105.508666,26.7922584 105.35947,26.7610218 105.264526,26.7281408 L105.406942,25.741714 C105.488322,25.7548664 105.618869,25.7696627 105.798584,25.7861032 C105.9783,25.8025437 106.105455,25.8107639 106.180054,25.8107639 C106.715809,25.8107639 107.13966,25.6299208 107.45162,25.2682292 C107.763578,24.9065375 108.038234,24.4363455 108.275594,23.8576389 L108.845255,22.4273201 L104.939005,12.8491162 L103.820028,12.7603378 L103.820028,11.8824179 L107.604207,11.8824179 L107.604207,12.7603378 L106.291951,12.8589804 L108.977498,19.6653251 L109.364054,20.9476799 L109.425089,20.9476799 L112.436157,12.8589804 L111.093384,12.7603378 L111.093384,11.8824179 L114.897909,11.8824179 L114.897909,12.7603378 Z M123.727661,22.5555556 C123.646281,22.1938639 123.588637,21.8814986 123.554728,21.6184501 C123.52082,21.3554017 123.503866,21.0890691 123.503866,20.8194444 C123.096962,21.3784224 122.554433,21.8420384 121.876261,22.2103062 C121.19809,22.578574 120.435158,22.7627052 119.587443,22.7627052 C118.50915,22.7627052 117.675011,22.4930846 117.085002,21.9538352 C116.494992,21.4145859 116.199992,20.6846374 116.199992,19.7639678 C116.199992,18.7775361 116.637406,17.9949787 117.512248,17.4162721 C118.387089,16.8375655 119.573872,16.5482165 121.072632,16.5482165 L123.503866,16.5482165 L123.503866,15.1376263 C123.503866,14.3747858 123.25125,13.7763595 122.746012,13.3423296 C122.240774,12.9082996 121.533791,12.6912879 120.625041,12.6912879 C120.014686,12.6912879 119.456898,12.7718453 118.95166,12.9329624 C118.446422,13.0940796 118.024267,13.3127354 117.685181,13.5889362 L117.583455,15.0192551 L116.576375,15.0192551 L116.586548,12.9674874 C117.095177,12.5860671 117.703827,12.2769898 118.412516,12.0402462 C119.121206,11.8035026 119.875661,11.6851326 120.675903,11.6851326 C121.889831,11.6851326 122.866384,11.9843457 123.605591,12.5827809 C124.344798,13.1812162 124.714396,14.0393989 124.714396,15.1573548 L124.714396,20.4051452 C124.714396,20.6221602 124.719482,20.8309518 124.729655,21.0315262 C124.739828,21.2321006 124.761868,21.42774 124.795776,21.6184501 L125.894409,21.6875 L125.894409,22.5555556 L123.727661,22.5555556 Z M119.719686,21.7170928 C120.601309,21.7170928 121.377804,21.5198094 122.049194,21.1252367 C122.720584,20.7306641 123.20547,20.2210153 123.503866,19.5962753 L123.503866,17.4557292 L121.052287,17.4557292 C119.946867,17.4557292 119.063561,17.677673 118.402344,18.1215672 C117.741126,18.5654615 117.410522,19.1260751 117.410522,19.8034249 C117.410522,20.3755553 117.615666,20.8375272 118.02596,21.1893545 C118.436254,21.5411818 119.000824,21.7170928 119.719686,21.7170928 Z M135.609172,15.1770833 L134.612264,15.1770833 L134.469849,13.6678504 C134.164671,13.3587685 133.779815,13.1187403 133.315267,12.9477588 C132.850719,12.7767773 132.316667,12.6912879 131.713094,12.6912879 C130.824689,12.6912879 130.158395,12.8770631 129.714193,13.248619 C129.26999,13.6201749 129.047892,14.0558424 129.047892,14.5556345 C129.047892,15.0488503 129.239473,15.4565693 129.62264,15.7788037 C130.005807,16.101038 130.770434,16.3838109 131.916545,16.6271307 C133.225416,16.9099078 134.20536,17.2962544 134.856405,17.7861821 C135.50745,18.2761099 135.832967,18.9419413 135.832967,19.7836963 C135.832967,20.6714849 135.461674,21.3899252 134.719076,21.9390388 C133.976477,22.4881525 132.994838,22.7627052 131.774129,22.7627052 C130.960323,22.7627052 130.219432,22.6525553 129.551432,22.4322522 C128.883433,22.2119491 128.3053,21.9012278 127.817017,21.5000789 L127.817017,19.3496686 L128.803752,19.3496686 L128.976685,20.8687658 C129.302207,21.1844239 129.71419,21.4129438 130.212646,21.5543324 C130.711103,21.6957209 131.231592,21.7664141 131.774129,21.7664141 C132.655753,21.7664141 133.350868,21.5789949 133.859497,21.2041509 C134.368126,20.8293068 134.622437,20.3755551 134.622437,19.8428819 C134.622437,19.3430899 134.410511,18.9057784 133.986654,18.5309343 C133.562796,18.1560903 132.798169,17.8503011 131.692749,17.6135574 C130.383877,17.3373566 129.412411,16.9707383 128.77832,16.5136916 C128.14423,16.0566449 127.827189,15.417118 127.827189,14.5950915 C127.827189,13.7796413 128.183224,13.0907935 128.895304,12.5285275 C129.607385,11.9662614 130.546639,11.6851326 131.713094,11.6851326 C132.520119,11.6851326 133.257619,11.8051466 133.925618,12.0451784 C134.593618,12.2852101 135.137842,12.6090836 135.558309,13.0168087 L135.609172,15.1770833 Z" id="vyas" fill="#44484B" fill-rule="nonzero"></path>
            </g>
            <g id="boundingLogo" transform="translate(0.250000, 0.250000)" stroke="#44484B">
                <rect id="Rectangle" stroke-width="0.25" x="1.75" y="1.75" width="146.75" height="34.75"></rect>
                <rect id="Rectangle" stroke-width="0.5" fill="#FFFFFF" fill-rule="nonzero" x="0" y="0" width="3.5" height="3.5"></rect>
                <rect id="Rectangle-Copy" stroke-width="0.5" fill="#FFFFFF" fill-rule="nonzero" x="0" y="18" width="3.5" height="3.5"></rect>
                <rect id="Rectangle-Copy-2" stroke-width="0.5" fill="#FFFFFF" fill-rule="nonzero" x="0" y="35" width="3.5" height="3.5"></rect>
                <rect id="Rectangle-Copy-5" stroke-width="0.5" fill="#FFFFFF" fill-rule="nonzero" x="74" y="0" width="3.5" height="3.5"></rect>
                <rect id="Rectangle-Copy-4" stroke-width="0.5" fill="#FFFFFF" fill-rule="nonzero" x="147" y="18" width="3.5" height="3.5"></rect>
                <rect id="Rectangle-Copy-7" stroke-width="0.5" fill="#FFFFFF" fill-rule="nonzero" x="147" y="35" width="3.5" height="3.5"></rect>
                <rect id="Rectangle-Copy-6" stroke-width="0.5" fill="#FFFFFF" fill-rule="nonzero" x="147" y="0" width="3.5" height="3.5"></rect>
                <rect id="Rectangle-Copy-3" stroke-width="0.5" fill="#FFFFFF" fill-rule="nonzero" x="74" y="35" width="3.5" height="3.5"></rect>

              <set attributeName="opacity" to="0" />

              <set attributeName="opacity" to="1"
         begin="nameLogo.mouseover"
         end="nameLogo.mouseout"/>

          </g>
        </g>
    </g>

</svg>
